<?xml version="1.0" standalone="no"?>
<!DOCTYPE svg PUBLIC "-//W3C//DTD SVG 20010904//EN"
 "http://www.w3.org/TR/2001/REC-SVG-20010904/DTD/svg10.dtd">
<svg version="1.0" xmlns="http://www.w3.org/2000/svg"
 width="141.000000pt" height="141.000000pt" viewBox="0 0 141.000000 141.000000"
 preserveAspectRatio="xMidYMid meet">
<metadata>
Created by potrace 1.14, written by Peter Selinger 2001-2017
</metadata>
<g transform="translate(0.000000,141.000000) scale(0.100000,-0.100000)"
fill="#000000" stroke="none">
<path d="M695 1134 c-5 -1 -23 -5 -39 -9 -20 -4 -111 -88 -306 -283 -295 -294
-310 -314 -290 -382 22 -78 88 -120 165 -106 31 6 68 37 224 193 253 251 295
290 311 285 7 -3 10 0 6 7 -5 7 -1 9 11 4 15 -6 16 -4 5 9 -10 13 -10 17 5 23
10 5 22 7 27 6 5 -1 6 4 3 12 -2 7 2 22 10 32 12 15 14 16 10 3 -3 -9 0 -19 9
-22 10 -4 13 1 10 17 -3 12 -5 26 -5 30 -1 5 -6 5 -13 1 -7 -4 -8 -3 -4 5 4 6
12 8 18 5 6 -4 8 1 4 14 -4 11 -2 23 3 27 7 4 8 -1 5 -12 -5 -15 -4 -16 6 -3
9 12 10 11 5 -6 -3 -14 0 -24 8 -27 24 -9 7 41 -21 63 -13 11 -22 20 -18 20 4
0 -11 18 -33 40 -22 22 -41 40 -43 40 -2 0 -17 4 -33 8 -17 5 -34 8 -40 6z"/>
<path d="M905 965 c4 -11 7 -24 8 -30 2 -11 18 -25 30 -25 5 0 5 4 2 10 -3 6
1 7 12 4 15 -5 14 -3 -2 7 -11 7 -28 22 -38 33 -18 20 -19 20 -12 1z"/>
<path d="M863 945 c2 -11 6 -25 10 -32 10 -15 -13 -22 -38 -11 -20 9 -20 9 -1
-6 18 -14 18 -16 3 -17 -37 -3 -40 -4 -45 -18 -3 -9 0 -11 8 -6 9 5 11 4 6 -4
-4 -6 -28 -21 -53 -33 -31 -15 -41 -23 -31 -29 7 -5 21 -6 30 -3 10 3 21 -3
27 -13 6 -11 11 -13 11 -5 0 7 5 10 11 6 7 -4 10 -1 7 7 -3 8 -10 15 -16 15
-7 1 -20 2 -29 3 -15 1 -16 3 -3 11 9 6 17 5 22 -3 8 -12 9 -10 12 16 1 6 9
11 18 9 10 -1 15 4 14 15 -1 13 5 17 21 16 14 -2 22 2 20 10 -2 13 17 14 46 2
12 -5 16 -3 14 6 -2 8 -2 10 1 6 2 -4 10 -3 17 3 9 8 15 8 20 0 3 -6 11 -8 16
-5 9 6 12 -5 10 -35 0 -11 1 -11 5 -2 5 10 9 10 20 1 11 -9 14 -9 14 0 0 6 -7
14 -15 17 -8 4 -13 9 -10 14 7 11 -38 28 -68 25 -25 -3 -32 5 -28 28 1 5 -3 6
-9 2 -5 -3 -10 -1 -10 5 0 6 -4 9 -9 6 -5 -4 -12 0 -15 6 -2 7 -4 4 -3 -7z
m41 -41 c3 -8 2 -12 -4 -9 -6 3 -10 10 -10 16 0 14 7 11 14 -7z"/>
<path d="M946 883 c-10 -11 -7 -22 7 -19 6 1 9 1 5 -1 -5 -3 -8 -9 -8 -14 0
-6 4 -8 9 -4 6 3 15 -4 21 -15 11 -21 36 -29 25 -7 -4 6 1 3 9 -7 10 -12 16
-15 16 -7 0 7 6 11 13 8 6 -2 11 -10 10 -16 -3 -13 7 -14 26 -2 11 7 9 10 -8
16 -11 3 -21 10 -21 15 0 5 -15 8 -32 7 -25 -2 -33 2 -32 14 1 17 -30 42 -40
32z"/>
<path d="M888 868 c12 -6 22 -15 22 -20 0 -4 6 -8 14 -8 8 0 17 -7 20 -16 3
-8 10 -12 16 -9 10 6 14 -6 10 -40 l-2 -20 16 20 c16 20 16 20 31 1 9 -12 15
-15 15 -7 0 11 3 11 16 0 13 -10 17 -10 26 2 8 11 9 11 5 -3 -4 -9 1 -19 10
-22 11 -5 14 -2 9 10 -5 14 -4 15 9 4 13 -11 13 -15 3 -21 -13 -8 -14 -12 -17
-46 -1 -16 -3 -16 -12 -3 -8 13 -10 12 -7 -4 2 -11 13 -21 27 -23 20 -3 22 -1
11 12 -9 10 -9 19 -2 28 6 6 10 16 10 22 0 5 5 11 11 13 16 5 13 -14 -4 -28
-8 -7 -15 -17 -15 -23 0 -5 9 -2 19 7 18 17 39 7 27 -12 -2 -4 4 -13 15 -20
10 -7 19 -8 19 -3 0 6 -4 13 -10 16 -5 3 -10 11 -10 17 0 5 9 0 19 -13 14 -17
16 -26 8 -32 -8 -5 -7 -7 3 -6 28 3 41 -1 36 -10 -3 -5 1 -14 9 -21 8 -7 15
-9 15 -4 -1 12 -29 61 -30 51 0 -10 -50 43 -50 54 0 5 -7 6 -15 3 -10 -4 -15
0 -15 15 0 12 -6 21 -16 21 -9 0 -12 5 -8 12 4 7 3 8 -4 4 -7 -4 -12 -3 -12 2
0 16 -31 23 -46 11 -14 -11 -20 -1 -15 25 1 5 -4 5 -11 -1 -16 -13 -56 0 -64
22 -3 8 -10 13 -14 10 -5 -3 -12 0 -17 8 -4 7 -21 18 -36 25 -34 15 -51 15
-19 0z"/>
<path d="M830 849 c0 -5 5 -7 10 -4 6 3 11 1 11 -4 1 -6 2 -16 3 -21 0 -6 8
-15 16 -20 8 -5 11 -10 7 -10 -11 0 12 -40 24 -40 6 0 6 7 -1 19 -5 11 -7 27
-4 35 4 11 1 15 -7 13 -8 -2 -11 -2 -6 1 4 2 -4 12 -17 23 -27 22 -36 24 -36
8z"/>
<path d="M870 850 c0 -5 6 -10 14 -10 16 0 28 -24 21 -42 -3 -7 -1 -19 4 -27
8 -13 12 -13 28 0 17 13 17 13 3 -5 -14 -18 -13 -19 3 -13 11 4 16 3 12 -3 -3
-6 -1 -10 4 -10 14 0 14 6 1 31 -8 14 -7 19 1 19 7 0 -9 16 -34 35 -49 37 -57
41 -57 25z m63 -63 c-18 -11 -25 -5 -17 16 4 13 9 14 19 4 11 -10 10 -14 -2
-20z"/>
<path d="M805 810 c1 -9 11 -14 26 -12 13 1 20 -1 14 -5 -15 -12 -14 -41 2
-47 11 -5 13 0 8 17 -6 21 -5 21 6 2 7 -11 17 -24 23 -28 7 -6 4 -7 -6 -3 -10
3 -18 1 -18 -4 0 -6 3 -10 8 -11 4 0 18 -2 32 -4 20 -2 26 1 27 16 1 10 -2 19
-8 19 -5 0 -9 -6 -9 -12 0 -7 -12 1 -25 17 -13 17 -31 38 -39 47 -11 12 -12
18 -3 21 7 3 0 4 -14 3 -18 -1 -26 -6 -24 -16z"/>
<path d="M750 764 c0 -8 4 -13 9 -9 5 3 12 -4 16 -15 3 -11 11 -20 16 -20 6 0
7 4 4 10 -3 5 3 15 15 22 11 7 20 16 20 21 0 4 -11 0 -25 -9 -23 -15 -25 -15
-31 0 -8 20 -24 21 -24 0z"/>
<path d="M985 763 c-4 -10 -9 -31 -11 -47 -3 -24 -2 -27 11 -16 12 10 13 16 3
29 -12 14 -11 14 5 2 10 -8 17 -9 17 -3 0 6 -5 14 -10 17 -8 5 -7 11 1 21 7 8
7 14 1 14 -5 0 -13 -8 -17 -17z"/>
<path d="M1009 746 c6 -7 9 -20 5 -29 -4 -11 0 -14 13 -12 10 2 20 4 23 4 3 1
-2 6 -10 11 -12 8 -13 11 -2 22 11 11 13 10 10 -1 -2 -7 3 -16 11 -19 8 -3 11
0 7 7 -5 7 -1 9 11 5 15 -5 15 -4 -1 7 -11 7 -33 14 -49 15 -24 3 -27 1 -18
-10z"/>
<path d="M809 748 c-9 -32 -7 -50 5 -45 17 7 40 -18 31 -33 -3 -5 1 -10 9 -10
9 0 15 -3 14 -7 -2 -5 7 -18 20 -30 24 -25 38 -30 26 -11 -5 7 -3 8 6 3 8 -5
11 -3 8 6 -3 8 -10 15 -16 15 -43 5 -46 6 -34 11 10 4 9 9 -5 20 -16 13 -16
13 5 3 22 -11 23 -10 17 9 -4 13 -2 21 5 21 6 0 9 -4 6 -8 -2 -4 5 -8 17 -8
12 0 31 -3 42 -7 22 -7 54 7 42 19 -3 4 -13 2 -20 -5 -11 -9 -17 -8 -27 4 -10
12 -10 15 0 15 10 0 10 3 0 15 -7 8 -17 12 -22 9 -6 -4 -6 -9 2 -14 19 -11 -3
-20 -39 -15 -17 2 -29 0 -26 -6 3 -5 -1 -6 -9 -3 -9 3 -14 10 -11 14 6 10 -22
40 -36 40 -5 0 -9 -1 -10 -2z m29 -21 c8 -10 6 -13 -7 -13 -11 0 -17 6 -14 13
3 7 6 13 8 13 1 0 7 -6 13 -13z"/>
<path d="M1055 707 c-10 -8 -14 -16 -9 -19 5 -3 17 3 27 14 20 21 9 24 -18 5z"/>
<path d="M820 690 c0 -5 5 -10 11 -10 5 0 7 5 4 10 -3 6 -8 10 -11 10 -2 0 -4
-4 -4 -10z"/>
<path d="M1015 681 c-4 -15 -13 -19 -35 -16 -20 3 -33 -2 -40 -13 -9 -14 -10
-13 -5 6 5 16 3 22 -7 20 -15 -3 -28 -18 -28 -33 0 -5 4 -4 9 3 7 11 9 10 15
-3 3 -9 10 -13 16 -10 5 3 10 2 10 -3 0 -5 7 -9 15 -9 20 0 19 14 -2 26 -10 6
-13 11 -6 11 6 0 15 -5 19 -11 4 -8 9 -7 16 2 7 11 8 9 4 -5 -5 -14 -3 -17 11
-11 10 4 26 8 36 9 9 0 17 5 17 11 0 5 5 3 11 -5 9 -13 10 -13 6 0 -2 8 -11
14 -20 14 -9 -1 -15 2 -12 6 3 4 -2 13 -9 19 -11 10 -16 8 -21 -8z m6 -24
c-10 -9 -11 -8 -5 6 3 10 9 15 12 12 3 -3 0 -11 -7 -18z"/>
<path d="M1132 688 c-9 -9 -9 -15 0 -25 8 -10 8 -17 -1 -26 -10 -9 -16 -8 -28
8 -15 20 -15 20 -10 -3 3 -12 -1 -28 -8 -35 -11 -11 -9 -16 7 -26 18 -11 20
-11 15 1 -8 22 8 41 36 41 23 0 24 1 12 24 -8 14 -11 32 -8 39 6 17 1 18 -15
2z"/>
<path d="M1115 650 c-3 -5 -1 -10 4 -10 6 0 11 5 11 10 0 6 -2 10 -4 10 -3 0
-8 -4 -11 -10z"/>
<path d="M1160 652 c0 -11 36 -36 55 -37 6 0 9 -8 7 -18 -2 -12 2 -15 15 -11
13 4 15 3 5 -4 -11 -7 -10 -10 3 -16 22 -8 25 -8 23 3 -2 5 2 9 7 10 6 1 10
-4 10 -10 0 -5 11 -19 25 -30 14 -10 18 -17 10 -14 -10 4 -15 -2 -16 -19 -1
-14 3 -23 10 -22 6 2 7 1 3 -2 -4 -2 -3 -10 3 -17 9 -11 6 -16 -12 -26 -13 -7
-25 -11 -28 -9 -3 2 -6 -4 -8 -13 -2 -9 2 -17 8 -17 7 0 6 -5 -2 -14 -9 -9
-17 -11 -25 -4 -8 6 -19 5 -33 -2 -12 -6 -24 -9 -28 -6 -3 3 1 6 8 6 9 0 7 5
-5 14 -17 12 -17 16 -5 31 12 15 12 16 -6 13 -11 -2 -18 2 -17 10 2 6 -2 12
-7 12 -14 0 -13 -13 4 -45 8 -15 12 -33 10 -40 -3 -8 6 -14 25 -17 17 -3 31
-1 31 3 0 4 8 6 18 4 19 -3 52 22 52 39 0 7 9 19 19 28 26 22 22 115 -6 138
-11 8 -25 24 -31 35 -10 18 -11 18 -12 3 0 -25 -15 -22 -38 7 -11 13 -22 22
-26 18 -3 -3 -15 2 -26 12 -11 10 -20 13 -20 7z"/>
<path d="M1005 625 c-16 -7 -38 -11 -47 -10 -10 2 -23 -5 -28 -16 -9 -15 -7
-19 5 -19 9 0 14 -4 11 -9 -7 -11 28 -43 37 -34 4 3 7 1 7 -5 0 -14 36 -52 49
-52 5 0 11 -9 14 -20 5 -20 37 -29 37 -10 0 5 -8 7 -17 4 -15 -5 -15 -4 -3 4
8 6 17 9 21 6 4 -2 7 5 6 16 -1 11 -5 20 -10 20 -4 0 -6 4 -3 9 3 5 0 14 -7
20 -11 8 -14 5 -14 -19 0 -17 5 -27 10 -23 6 4 7 1 2 -7 -6 -10 -11 -10 -20 3
-7 9 -15 14 -19 10 -4 -4 -4 1 0 10 3 10 3 17 -2 16 -29 -5 -37 2 -18 17 18
14 18 15 -5 8 -25 -7 -25 -8 -6 39 4 8 -1 14 -10 14 -9 0 -13 -6 -10 -16 2 -9
0 -23 -6 -31 -8 -11 -9 -9 -3 10 6 23 6 24 -12 10 -10 -8 -16 -10 -12 -6 4 5
3 14 -2 21 -10 12 -7 13 44 17 14 1 22 6 20 10 -3 4 0 8 6 8 7 0 9 -8 5 -19
-3 -10 1 -24 10 -31 9 -8 15 -8 15 -2 0 6 -5 14 -10 17 -7 4 -7 12 0 25 18 34
13 36 -35 15z"/>
<path d="M1052 615 c-7 -15 -7 -26 0 -33 6 -6 7 -15 3 -22 -5 -8 -12 -7 -25 5
-16 14 -18 14 -24 0 -3 -9 -2 -13 4 -10 19 11 32 -6 18 -23 -8 -10 -9 -13 -1
-9 7 4 16 0 22 -10 6 -10 11 -13 11 -7 0 5 -5 15 -11 21 -7 7 -6 12 5 16 14 6
45 -15 47 -31 0 -4 2 -16 4 -27 2 -11 -3 -30 -11 -42 -13 -21 -13 -23 1 -23
10 0 13 5 9 12 -4 7 -3 8 5 4 9 -6 9 -11 1 -21 -8 -10 -8 -15 1 -21 7 -4 18 1
26 11 15 22 18 12 3 -15 -7 -14 -6 -18 5 -16 18 3 33 16 18 16 -6 0 -10 8 -9
18 0 9 -5 16 -11 15 -17 -4 -16 9 0 32 14 19 43 12 31 -7 -4 -7 -2 -8 4 -4 19
12 35 -4 21 -20 -16 -19 -7 -26 35 -29 24 -2 33 1 30 9 -2 6 -13 12 -24 12
-10 0 -16 -4 -14 -8 3 -4 1 -8 -5 -8 -5 0 -8 14 -6 30 2 17 -1 28 -6 25 -5 -3
-6 1 -3 9 3 9 1 16 -6 16 -6 0 -8 -4 -5 -10 3 -6 -1 -7 -9 -4 -9 3 -16 10 -16
16 0 5 4 7 9 4 5 -3 14 0 20 7 8 11 5 14 -19 14 -16 0 -27 -4 -24 -8 3 -5 -4
-16 -15 -26 -11 -9 -17 -21 -14 -26 3 -6 1 -7 -6 -3 -9 6 -9 11 -1 21 6 7 7
15 3 17 -4 3 -3 3 4 2 7 -2 15 1 18 6 6 9 -8 14 -28 11 -5 -1 -1 9 7 21 20 28
20 39 1 32 -8 -4 -13 -10 -10 -14 3 -5 0 -12 -6 -16 -7 -4 -9 -3 -6 3 4 6 0
14 -8 17 -25 9 -35 48 -18 67 12 14 12 17 0 22 -9 3 -19 -4 -25 -18z"/>
<path d="M1140 608 c0 -4 -3 -7 -7 -5 -8 2 -13 -6 -13 -18 0 -3 9 -1 21 5 25
14 32 9 23 -14 -5 -13 -9 -14 -14 -6 -5 9 -13 9 -27 2 -14 -8 -23 -8 -31 0 -9
9 -12 9 -12 1 0 -19 18 -25 39 -13 24 12 36 -2 22 -27 -8 -15 -5 -18 19 -18
16 0 35 6 42 13 10 10 8 12 -6 12 -9 0 -14 -4 -11 -10 3 -5 1 -10 -4 -10 -6 0
-11 5 -11 11 0 5 -5 7 -12 3 -7 -4 -8 -3 -4 5 4 6 11 9 16 6 5 -3 7 10 6 30
-2 19 1 32 6 29 5 -3 6 -15 2 -26 -5 -15 -3 -19 7 -13 8 5 11 5 7 0 -4 -4 0
-14 10 -21 13 -9 19 -9 24 -1 5 9 10 9 20 -1 19 -19 -6 -40 -27 -22 -13 11
-14 9 -11 -16 6 -41 15 -76 20 -81 2 -3 15 1 28 8 23 14 29 15 51 18 8 1 6 6
-5 15 -11 8 -16 23 -14 42 4 31 -10 58 -25 48 -5 -3 -22 3 -39 12 -23 14 -27
21 -18 31 6 8 7 13 2 12 -5 -1 -11 0 -14 1 -13 7 -60 5 -60 -2z m146 -90 c-1
-13 -6 -22 -12 -21 -5 1 -15 -7 -22 -18 -13 -20 -3 -26 14 -9 8 8 15 6 25 -6
8 -10 9 -15 2 -11 -6 4 -14 3 -18 -2 -3 -6 -13 -7 -22 -4 -12 5 -14 3 -8 -7 5
-8 4 -11 -3 -7 -12 8 -11 25 2 46 7 11 5 13 -10 7 -14 -5 -16 -4 -8 4 6 6 21
12 32 13 17 1 21 6 17 24 -2 13 0 21 4 18 5 -2 8 -15 7 -27z"/>
<path d="M625 540 c-151 -75 -94 -310 75 -310 172 0 228 235 74 310 -51 25
-98 25 -149 0z"/>
<path d="M1235 530 c-3 -5 -1 -10 4 -10 6 0 11 5 11 10 0 6 -2 10 -4 10 -3 0
-8 -4 -11 -10z"/>
</g>
</svg>
